<?xml version="1.0" encoding="UTF-8"?>
<svg width="128" height="128"
		xmlns="http://www.w3.org/2000/svg"
		xmlns:rdf="http://www.w3.org/1999/02/22-rdf-syntax-ns#"
		xmlns:cc="http://creativecommons.org/ns#"
		xmlns:dc="http://purl.org/dc/elements/1.1/">
	<title>Gcolor 2 Icon</title>
	<metadata>
		<rdf:RDF>
			<cc:Work rdf:about="">
				<dc:title>Gcolor 2 Icon</dc:title>
				<dc:format>image/svg+xml</dc:format>
				<dc:type rdf:resource="http://purl.org/dc/dcmitype/StillImage" />
				<cc:license rdf:resource="http://creativecommons.org/licenses/publicdomain/" />
				<dc:creator><cc:Agent><dc:title>Jason M. Simanek</dc:title></cc:Agent></dc:creator>
				<dc:date>2010-10-24</dc:date>
			</cc:Work>
			<cc:License rdf:about="http://creativecommons.org/licenses/publicdomain/">
				<cc:permits rdf:resource="http://creativecommons.org/ns#Reproduction" />
				<cc:permits rdf:resource="http://creativecommons.org/ns#Distribution" />
				<cc:permits rdf:resource="http://creativecommons.org/ns#DerivativeWorks" />
			</cc:License>
		</rdf:RDF>
	</metadata>
	<defs>
		<filter id="filter3700">
			<feGaussianBlur stdDeviation="2.1960711" />
		</filter>
		<linearGradient id="blueSide" gradientUnits="userSpaceOnUse" gradientTransform="matrix(1.0023015,0,0,0.87269084,-0.14376568,122.31164)" x1="63.392567" y1="940.02802" x2="60.180958" y2="968.79077">
			<stop stop-color="#164fb2" offset="0" />
			<stop stop-color="#498bfe" offset="1" />
		</linearGradient>
		<linearGradient id="greenSide" gradientUnits="userSpaceOnUse" x1="98.392853" y1="1010.7549" x2="76.557144" y2="995.75507">
			<stop stop-color="#01a600" offset="0" />
			<stop stop-color="#44e143" offset="1" />
		</linearGradient>
		<linearGradient id="redSide" gradientUnits="userSpaceOnUse" x1="21.657143" y1="1010.2193" x2="43.92857" y2="994.505">
			<stop stop-color="#a41717" offset="0" />
			<stop stop-color="#ff3434" offset="1" />
		</linearGradient>
	</defs>
	<g transform="translate(0,-924.3622)">
		<path filter="url(#filter3700)" stroke-width="4" stroke="#000000" opacity="0.4" d="m 62.5,60.75 c -15.719395,-0.103555 -36.319276,5.562888 -42.196074,36.459959 2.453386,2.1576 20.768542,16.475321 33.301669,27.332521 2.915159,2.5254 10.569837,3.50326 14.743472,-0.0632 4.263079,-3.6431 32.935903,-25.831439 37.510813,-29.171527 C 98.178143,65.975462 76.781464,60.844083 62.5,60.75 Z" transform="matrix(1.0246691,0,0,0.98834997,-0.26608386,919.87121)" />
		<path d="m 61.875092,927.19287 c -14.626739,8.03534 -40.809225,21.91969 -42.914418,23.07853 -2.235482,1.23054 -2.843732,1.73682 -2.795551,4.06724 0.04818,2.33041 0.687101,33.81803 0.907582,51.98546 0.04727,3.8949 0.515266,4.0828 2.977305,6.2048 2.378203,2.0498 23.261287,18.3076 35.597839,28.3097 2.879399,2.3345 8.187471,3.4859 12.757408,0.025 4.569937,-3.4609 37.229103,-27.9031 39.297853,-29.6626 2.15206,-1.8305 3.21097,-4.6041 3.21097,-7.9607 0,-17.27711 0.54294,-42.13201 0.502,-47.42021 -0.041,-5.28963 -2.19395,-5.65805 -4.58713,-6.80279 -2.53392,-1.21207 -24.369811,-13.83956 -37.549542,-21.41354 -2.746613,-1.57838 -5.426745,-1.49778 -7.404316,-0.41139 L 61.875092,927.19227 Z" />
		<g stroke-width="2" transform="matrix(0.96935521,0,0,0.950016,3.5493362,46.731044)">
			<path fill="url(#blueSide)" stroke="#0e19a9" d="m 19.906876,953.66497 43.697256,-23.53875 40.239008,23.73834 -43.920614,26.44792 -40.01565,-26.64751 z" />
			<path fill="url(#greenSide)" stroke="#056500" d="m 62.682816,986.11364 0.183671,55.88716 43.200673,-32.1396 0.71172,-51.78048 C 92.175804,966.54437 72.987794,979.88842 62.682816,986.11364 Z" />
			<path fill="url(#redSide)" stroke="#5d0000" d="M 17.876512,960.23871 18.626133,1012 l 38.497353,30.3429 0.714287,-56.40161 -39.961261,-25.70258 z" />
		</g>
	</g>
</svg>
